<svg width="20" height="16" viewBox="0 0 20 16" fill="none" xmlns="http://www.w3.org/2000/svg">
<path d="M12.1218 5.87999C13.2928 7.05099 13.2928 8.95199 12.1218 10.125C10.9508 11.296 9.04979 11.296 7.87679 10.125C6.70579 8.95399 6.70579 7.05299 7.87679 5.87999C9.04979 4.70699 10.9498 4.70699 12.1218 5.87999Z" stroke="#9C98A6" stroke-width="1.5" stroke-linecap="round" stroke-linejoin="round"/>
<path d="M1 8C1 7.341 1.152 6.689 1.446 6.088C2.961 2.991 6.309 1 10 1C13.691 1 17.039 2.991 18.554 6.088C18.848 6.689 19 7.341 19 8C19 8.659 18.848 9.311 18.554 9.912C17.039 13.009 13.691 15 10 15C6.309 15 2.961 13.009 1.446 9.912C1.152 9.311 1 8.659 1 8V8Z" stroke="#9C98A6" stroke-width="1.5" stroke-linecap="round" stroke-linejoin="round"/>
</svg>
